<?xml version="1.0" encoding="UTF-8" standalone="no"?>
<!DOCTYPE svg PUBLIC "-//W3C//DTD SVG 1.1//EN"
 "http://www.w3.org/Graphics/SVG/1.1/DTD/svg11.dtd">
<!-- Generated by graphviz version 2.47.3 (20210619.1520)
 -->
<!-- Title: dependencies Pages: 1 -->
<svg width="3155pt" height="247pt"
 viewBox="0.00 0.00 3155.00 246.80" xmlns="http://www.w3.org/2000/svg" xmlns:xlink="http://www.w3.org/1999/xlink">
<g id="graph0" class="graph" transform="scale(1 1) rotate(0) translate(4 242.8)">
<title>dependencies</title>
<polygon fill="white" stroke="transparent" points="-4,4 -4,-242.8 3151,-242.8 3151,4 -4,4"/>
<text text-anchor="middle" x="1573.5" y="-8.2" font-family="sans-serif" font-size="14.00">dependencies</text>
<g id="clust1" class="cluster">
<title>cluster_AppModule</title>
<polygon fill="none" stroke="black" stroke-dasharray="1,5" points="8,-32.8 8,-230.8 3139,-230.8 3139,-32.8 8,-32.8"/>
</g>
<g id="clust23" class="cluster">
<title>cluster_AppModule_imports</title>
<polygon fill="none" stroke="black" points="2987,-40.8 2987,-92.8 3131,-92.8 3131,-40.8 2987,-40.8"/>
</g>
<g id="clust25" class="cluster">
<title>cluster_AppModule_bootstrap</title>
<polygon fill="none" stroke="black" points="1555,-170.8 1555,-222.8 1679,-222.8 1679,-170.8 1555,-170.8"/>
</g>
<g id="clust2" class="cluster">
<title>cluster_AppModule_declarations</title>
<polygon fill="none" stroke="black" points="16,-40.8 16,-92.8 2979,-92.8 2979,-40.8 16,-40.8"/>
</g>
<!-- AlertasComponent -->
<g id="node1" class="node">
<title>AlertasComponent</title>
<polygon fill="#ffffb3" stroke="black" points="2970.75,-84.8 2849.25,-84.8 2849.25,-48.8 2970.75,-48.8 2970.75,-84.8"/>
<text text-anchor="middle" x="2910" y="-62.6" font-family="Times,serif" font-size="14.00">AlertasComponent</text>
</g>
<!-- AppModule -->
<g id="node21" class="node">
<title>AppModule</title>
<polygon fill="#8dd3c7" stroke="black" points="1658.66,-149.8 1655.66,-153.8 1634.66,-153.8 1631.66,-149.8 1575.34,-149.8 1575.34,-113.8 1658.66,-113.8 1658.66,-149.8"/>
<text text-anchor="middle" x="1617" y="-127.6" font-family="Times,serif" font-size="14.00">AppModule</text>
</g>
<!-- AlertasComponent&#45;&gt;AppModule -->
<g id="edge1" class="edge">
<title>AlertasComponent&#45;&gt;AppModule</title>
<path fill="none" stroke="black" d="M2910,-85.05C2910,-107.82 2910,-143.8 2910,-143.8 2910,-143.8 1668.92,-143.8 1668.92,-143.8"/>
<polygon fill="black" stroke="black" points="1668.92,-140.3 1658.92,-143.8 1668.92,-147.3 1668.92,-140.3"/>
</g>
<!-- ApadrinhadeComponent -->
<g id="node2" class="node">
<title>ApadrinhadeComponent</title>
<polygon fill="#ffffb3" stroke="black" points="2830.63,-84.8 2677.37,-84.8 2677.37,-48.8 2830.63,-48.8 2830.63,-84.8"/>
<text text-anchor="middle" x="2754" y="-62.6" font-family="Times,serif" font-size="14.00">ApadrinhadeComponent</text>
</g>
<!-- ApadrinhadeComponent&#45;&gt;AppModule -->
<g id="edge2" class="edge">
<title>ApadrinhadeComponent&#45;&gt;AppModule</title>
<path fill="none" stroke="black" d="M2754,-85.09C2754,-107.01 2754,-140.8 2754,-140.8 2754,-140.8 1668.81,-140.8 1668.81,-140.8"/>
<polygon fill="black" stroke="black" points="1668.81,-137.3 1658.81,-140.8 1668.81,-144.3 1668.81,-137.3"/>
</g>
<!-- AppComponent -->
<g id="node3" class="node">
<title>AppComponent</title>
<polygon fill="#ffffb3" stroke="black" points="2658.94,-84.8 2553.06,-84.8 2553.06,-48.8 2658.94,-48.8 2658.94,-84.8"/>
<text text-anchor="middle" x="2606" y="-62.6" font-family="Times,serif" font-size="14.00">AppComponent</text>
</g>
<!-- AppComponent&#45;&gt;AppModule -->
<g id="edge3" class="edge">
<title>AppComponent&#45;&gt;AppModule</title>
<path fill="none" stroke="black" d="M2606,-84.83C2606,-105.57 2606,-136.8 2606,-136.8 2606,-136.8 1668.86,-136.8 1668.86,-136.8"/>
<polygon fill="black" stroke="black" points="1668.86,-133.3 1658.86,-136.8 1668.86,-140.3 1668.86,-133.3"/>
</g>
<!-- CadastrarComponent -->
<g id="node4" class="node">
<title>CadastrarComponent</title>
<polygon fill="#ffffb3" stroke="black" points="2535.47,-84.8 2400.53,-84.8 2400.53,-48.8 2535.47,-48.8 2535.47,-84.8"/>
<text text-anchor="middle" x="2468" y="-62.6" font-family="Times,serif" font-size="14.00">CadastrarComponent</text>
</g>
<!-- CadastrarComponent&#45;&gt;AppModule -->
<g id="edge4" class="edge">
<title>CadastrarComponent&#45;&gt;AppModule</title>
<path fill="none" stroke="black" d="M2468,-85.11C2468,-104.95 2468,-133.8 2468,-133.8 2468,-133.8 1668.91,-133.8 1668.91,-133.8"/>
<polygon fill="black" stroke="black" points="1668.91,-130.3 1658.91,-133.8 1668.91,-137.3 1668.91,-130.3"/>
</g>
<!-- DindeComponent -->
<g id="node5" class="node">
<title>DindeComponent</title>
<polygon fill="#ffffb3" stroke="black" points="2382.55,-84.8 2267.45,-84.8 2267.45,-48.8 2382.55,-48.8 2382.55,-84.8"/>
<text text-anchor="middle" x="2325" y="-62.6" font-family="Times,serif" font-size="14.00">DindeComponent</text>
</g>
<!-- DindeComponent&#45;&gt;AppModule -->
<g id="edge5" class="edge">
<title>DindeComponent&#45;&gt;AppModule</title>
<path fill="none" stroke="black" d="M2325,-84.97C2325,-103.89 2325,-130.8 2325,-130.8 2325,-130.8 1668.91,-130.8 1668.91,-130.8"/>
<polygon fill="black" stroke="black" points="1668.91,-127.3 1658.91,-130.8 1668.91,-134.3 1668.91,-127.3"/>
</g>
<!-- DindeOptionComponent -->
<g id="node6" class="node">
<title>DindeOptionComponent</title>
<polygon fill="#ffffb3" stroke="black" points="2249.43,-84.8 2094.57,-84.8 2094.57,-48.8 2249.43,-48.8 2249.43,-84.8"/>
<text text-anchor="middle" x="2172" y="-62.6" font-family="Times,serif" font-size="14.00">DindeOptionComponent</text>
</g>
<!-- DindeOptionComponent&#45;&gt;AppModule -->
<g id="edge6" class="edge">
<title>DindeOptionComponent&#45;&gt;AppModule</title>
<path fill="none" stroke="black" d="M2172,-85.1C2172,-103.07 2172,-127.8 2172,-127.8 2172,-127.8 1668.72,-127.8 1668.72,-127.8"/>
<polygon fill="black" stroke="black" points="1668.72,-124.3 1658.72,-127.8 1668.72,-131.3 1668.72,-124.3"/>
</g>
<!-- EntrarComponent -->
<g id="node7" class="node">
<title>EntrarComponent</title>
<polygon fill="#ffffb3" stroke="black" points="2077.31,-84.8 1960.69,-84.8 1960.69,-48.8 2077.31,-48.8 2077.31,-84.8"/>
<text text-anchor="middle" x="2019" y="-62.6" font-family="Times,serif" font-size="14.00">EntrarComponent</text>
</g>
<!-- EntrarComponent&#45;&gt;AppModule -->
<g id="edge7" class="edge">
<title>EntrarComponent&#45;&gt;AppModule</title>
<path fill="none" stroke="black" d="M2019,-84.84C2019,-101.53 2019,-123.8 2019,-123.8 2019,-123.8 1668.88,-123.8 1668.88,-123.8"/>
<polygon fill="black" stroke="black" points="1668.88,-120.3 1658.88,-123.8 1668.88,-127.3 1668.88,-120.3"/>
</g>
<!-- HomeComponent -->
<g id="node8" class="node">
<title>HomeComponent</title>
<polygon fill="#ffffb3" stroke="black" points="1942.55,-84.8 1827.45,-84.8 1827.45,-48.8 1942.55,-48.8 1942.55,-84.8"/>
<text text-anchor="middle" x="1885" y="-62.6" font-family="Times,serif" font-size="14.00">HomeComponent</text>
</g>
<!-- HomeComponent&#45;&gt;AppModule -->
<g id="edge8" class="edge">
<title>HomeComponent&#45;&gt;AppModule</title>
<path fill="none" stroke="black" d="M1885,-85.08C1885,-100.75 1885,-120.8 1885,-120.8 1885,-120.8 1668.88,-120.8 1668.88,-120.8"/>
<polygon fill="black" stroke="black" points="1668.88,-117.3 1658.88,-120.8 1668.87,-124.3 1668.88,-117.3"/>
</g>
<!-- MenuComponent -->
<g id="node9" class="node">
<title>MenuComponent</title>
<polygon fill="#ffffb3" stroke="black" points="1808.99,-84.8 1695.01,-84.8 1695.01,-48.8 1808.99,-48.8 1808.99,-84.8"/>
<text text-anchor="middle" x="1752" y="-62.6" font-family="Times,serif" font-size="14.00">MenuComponent</text>
</g>
<!-- MenuComponent&#45;&gt;AppModule -->
<g id="edge9" class="edge">
<title>MenuComponent&#45;&gt;AppModule</title>
<path fill="none" stroke="black" d="M1752,-84.92C1752,-99.58 1752,-117.8 1752,-117.8 1752,-117.8 1668.97,-117.8 1668.97,-117.8"/>
<polygon fill="black" stroke="black" points="1668.97,-114.3 1658.97,-117.8 1668.97,-121.3 1668.97,-114.3"/>
</g>
<!-- OptionComponent -->
<g id="node10" class="node">
<title>OptionComponent</title>
<polygon fill="#ffffb3" stroke="black" points="1677.22,-84.8 1556.78,-84.8 1556.78,-48.8 1677.22,-48.8 1677.22,-84.8"/>
<text text-anchor="middle" x="1617" y="-62.6" font-family="Times,serif" font-size="14.00">OptionComponent</text>
</g>
<!-- OptionComponent&#45;&gt;AppModule -->
<g id="edge10" class="edge">
<title>OptionComponent&#45;&gt;AppModule</title>
<path fill="none" stroke="black" d="M1617,-84.91C1617,-84.91 1617,-103.79 1617,-103.79"/>
<polygon fill="black" stroke="black" points="1613.5,-103.79 1617,-113.79 1620.5,-103.79 1613.5,-103.79"/>
</g>
<!-- PerfilComponent -->
<g id="node11" class="node">
<title>PerfilComponent</title>
<polygon fill="#ffffb3" stroke="black" points="1539.43,-84.8 1426.57,-84.8 1426.57,-48.8 1539.43,-48.8 1539.43,-84.8"/>
<text text-anchor="middle" x="1483" y="-62.6" font-family="Times,serif" font-size="14.00">PerfilComponent</text>
</g>
<!-- PerfilComponent&#45;&gt;AppModule -->
<g id="edge11" class="edge">
<title>PerfilComponent&#45;&gt;AppModule</title>
<path fill="none" stroke="black" d="M1483,-84.92C1483,-99.58 1483,-117.8 1483,-117.8 1483,-117.8 1565.34,-117.8 1565.34,-117.8"/>
<polygon fill="black" stroke="black" points="1565.34,-121.3 1575.34,-117.8 1565.34,-114.3 1565.34,-121.3"/>
</g>
<!-- PostagemDeleteComponent -->
<g id="node12" class="node">
<title>PostagemDeleteComponent</title>
<polygon fill="#ffffb3" stroke="black" points="1409.3,-84.8 1236.7,-84.8 1236.7,-48.8 1409.3,-48.8 1409.3,-84.8"/>
<text text-anchor="middle" x="1323" y="-62.6" font-family="Times,serif" font-size="14.00">PostagemDeleteComponent</text>
</g>
<!-- PostagemDeleteComponent&#45;&gt;AppModule -->
<g id="edge12" class="edge">
<title>PostagemDeleteComponent&#45;&gt;AppModule</title>
<path fill="none" stroke="black" d="M1323,-85.08C1323,-100.75 1323,-120.8 1323,-120.8 1323,-120.8 1565.19,-120.8 1565.19,-120.8"/>
<polygon fill="black" stroke="black" points="1565.19,-124.3 1575.19,-120.8 1565.19,-117.3 1565.19,-124.3"/>
</g>
<!-- PostagemEditComponent -->
<g id="node13" class="node">
<title>PostagemEditComponent</title>
<polygon fill="#ffffb3" stroke="black" points="1218.6,-84.8 1059.4,-84.8 1059.4,-48.8 1218.6,-48.8 1218.6,-84.8"/>
<text text-anchor="middle" x="1139" y="-62.6" font-family="Times,serif" font-size="14.00">PostagemEditComponent</text>
</g>
<!-- PostagemEditComponent&#45;&gt;AppModule -->
<g id="edge13" class="edge">
<title>PostagemEditComponent&#45;&gt;AppModule</title>
<path fill="none" stroke="black" d="M1139,-84.84C1139,-101.53 1139,-123.8 1139,-123.8 1139,-123.8 1565,-123.8 1565,-123.8"/>
<polygon fill="black" stroke="black" points="1565,-127.3 1575,-123.8 1565,-120.3 1565,-127.3"/>
</g>
<!-- RodapeComponent -->
<g id="node14" class="node">
<title>RodapeComponent</title>
<polygon fill="#ffffb3" stroke="black" points="1041.1,-84.8 916.9,-84.8 916.9,-48.8 1041.1,-48.8 1041.1,-84.8"/>
<text text-anchor="middle" x="979" y="-62.6" font-family="Times,serif" font-size="14.00">RodapeComponent</text>
</g>
<!-- RodapeComponent&#45;&gt;AppModule -->
<g id="edge14" class="edge">
<title>RodapeComponent&#45;&gt;AppModule</title>
<path fill="none" stroke="black" d="M979,-85.1C979,-103.07 979,-127.8 979,-127.8 979,-127.8 1565.14,-127.8 1565.14,-127.8"/>
<polygon fill="black" stroke="black" points="1565.14,-131.3 1575.14,-127.8 1565.14,-124.3 1565.14,-131.3"/>
</g>
<!-- SobreComponent -->
<g id="node15" class="node">
<title>SobreComponent</title>
<polygon fill="#ffffb3" stroke="black" points="898.99,-84.8 785.01,-84.8 785.01,-48.8 898.99,-48.8 898.99,-84.8"/>
<text text-anchor="middle" x="842" y="-62.6" font-family="Times,serif" font-size="14.00">SobreComponent</text>
</g>
<!-- SobreComponent&#45;&gt;AppModule -->
<g id="edge15" class="edge">
<title>SobreComponent&#45;&gt;AppModule</title>
<path fill="none" stroke="black" d="M842,-84.97C842,-103.89 842,-130.8 842,-130.8 842,-130.8 1565.33,-130.8 1565.33,-130.8"/>
<polygon fill="black" stroke="black" points="1565.33,-134.3 1575.33,-130.8 1565.33,-127.3 1565.33,-134.3"/>
</g>
<!-- TemaDeleteComponent -->
<g id="node16" class="node">
<title>TemaDeleteComponent</title>
<polygon fill="#ffffb3" stroke="black" points="766.74,-84.8 617.26,-84.8 617.26,-48.8 766.74,-48.8 766.74,-84.8"/>
<text text-anchor="middle" x="692" y="-62.6" font-family="Times,serif" font-size="14.00">TemaDeleteComponent</text>
</g>
<!-- TemaDeleteComponent&#45;&gt;AppModule -->
<g id="edge16" class="edge">
<title>TemaDeleteComponent&#45;&gt;AppModule</title>
<path fill="none" stroke="black" d="M692,-85.11C692,-104.95 692,-133.8 692,-133.8 692,-133.8 1565.15,-133.8 1565.15,-133.8"/>
<polygon fill="black" stroke="black" points="1565.15,-137.3 1575.15,-133.8 1565.15,-130.3 1565.15,-137.3"/>
</g>
<!-- TemaEditComponent -->
<g id="node17" class="node">
<title>TemaEditComponent</title>
<polygon fill="#ffffb3" stroke="black" points="599.04,-84.8 462.96,-84.8 462.96,-48.8 599.04,-48.8 599.04,-84.8"/>
<text text-anchor="middle" x="531" y="-62.6" font-family="Times,serif" font-size="14.00">TemaEditComponent</text>
</g>
<!-- TemaEditComponent&#45;&gt;AppModule -->
<g id="edge17" class="edge">
<title>TemaEditComponent&#45;&gt;AppModule</title>
<path fill="none" stroke="black" d="M531,-84.83C531,-105.57 531,-136.8 531,-136.8 531,-136.8 1565.09,-136.8 1565.09,-136.8"/>
<polygon fill="black" stroke="black" points="1565.09,-140.3 1575.09,-136.8 1565.09,-133.3 1565.09,-140.3"/>
</g>
<!-- TemasComponent -->
<g id="node18" class="node">
<title>TemasComponent</title>
<polygon fill="#ffffb3" stroke="black" points="444.15,-84.8 325.85,-84.8 325.85,-48.8 444.15,-48.8 444.15,-84.8"/>
<text text-anchor="middle" x="385" y="-62.6" font-family="Times,serif" font-size="14.00">TemasComponent</text>
</g>
<!-- TemasComponent&#45;&gt;AppModule -->
<g id="edge18" class="edge">
<title>TemasComponent&#45;&gt;AppModule</title>
<path fill="none" stroke="black" d="M385,-85.09C385,-107.01 385,-140.8 385,-140.8 385,-140.8 1565.3,-140.8 1565.3,-140.8"/>
<polygon fill="black" stroke="black" points="1565.3,-144.3 1575.3,-140.8 1565.3,-137.3 1565.3,-144.3"/>
</g>
<!-- UsuarioEditComponent -->
<g id="node19" class="node">
<title>UsuarioEditComponent</title>
<polygon fill="#ffffb3" stroke="black" points="307.48,-84.8 158.52,-84.8 158.52,-48.8 307.48,-48.8 307.48,-84.8"/>
<text text-anchor="middle" x="233" y="-62.6" font-family="Times,serif" font-size="14.00">UsuarioEditComponent</text>
</g>
<!-- UsuarioEditComponent&#45;&gt;AppModule -->
<g id="edge19" class="edge">
<title>UsuarioEditComponent&#45;&gt;AppModule</title>
<path fill="none" stroke="black" d="M233,-85.05C233,-107.82 233,-143.8 233,-143.8 233,-143.8 1565.2,-143.8 1565.2,-143.8"/>
<polygon fill="black" stroke="black" points="1565.2,-147.3 1575.2,-143.8 1565.2,-140.3 1565.2,-147.3"/>
</g>
<!-- VagasComponent -->
<g id="node20" class="node">
<title>VagasComponent</title>
<polygon fill="#ffffb3" stroke="black" points="140.31,-84.8 23.69,-84.8 23.69,-48.8 140.31,-48.8 140.31,-84.8"/>
<text text-anchor="middle" x="82" y="-62.6" font-family="Times,serif" font-size="14.00">VagasComponent</text>
</g>
<!-- VagasComponent&#45;&gt;AppModule -->
<g id="edge20" class="edge">
<title>VagasComponent&#45;&gt;AppModule</title>
<path fill="none" stroke="black" d="M82,-84.95C82,-108.56 82,-146.8 82,-146.8 82,-146.8 1565.15,-146.8 1565.15,-146.8"/>
<polygon fill="black" stroke="black" points="1565.15,-150.3 1575.15,-146.8 1565.15,-143.3 1565.15,-150.3"/>
</g>
<!-- AppComponent  -->
<g id="node23" class="node">
<title>AppComponent </title>
<polygon fill="#80b1d3" stroke="black" points="1671.44,-214.8 1562.56,-214.8 1562.56,-178.8 1671.44,-178.8 1671.44,-214.8"/>
<text text-anchor="middle" x="1617" y="-192.6" font-family="Times,serif" font-size="14.00">AppComponent </text>
</g>
<!-- AppModule&#45;&gt;AppComponent  -->
<g id="edge22" class="edge">
<title>AppModule&#45;&gt;AppComponent </title>
<path fill="none" stroke="black" stroke-dasharray="1,5" d="M1617,-149.91C1617,-149.91 1617,-168.79 1617,-168.79"/>
<polygon fill="black" stroke="black" points="1613.5,-168.79 1617,-178.79 1620.5,-168.79 1613.5,-168.79"/>
</g>
<!-- AppRoutingModule -->
<g id="node22" class="node">
<title>AppRoutingModule</title>
<polygon fill="#8dd3c7" stroke="black" points="3123.27,-84.8 3120.27,-88.8 3099.27,-88.8 3096.27,-84.8 2994.73,-84.8 2994.73,-48.8 3123.27,-48.8 3123.27,-84.8"/>
<text text-anchor="middle" x="3059" y="-62.6" font-family="Times,serif" font-size="14.00">AppRoutingModule</text>
</g>
<!-- AppRoutingModule&#45;&gt;AppModule -->
<g id="edge21" class="edge">
<title>AppRoutingModule&#45;&gt;AppModule</title>
<path fill="none" stroke="black" d="M3059,-84.95C3059,-108.56 3059,-146.8 3059,-146.8 3059,-146.8 1668.99,-146.8 1668.99,-146.8"/>
<polygon fill="black" stroke="black" points="1668.99,-143.3 1658.99,-146.8 1668.99,-150.3 1668.99,-143.3"/>
</g>
</g>
</svg>
